<?xml version="1.0" encoding="utf-8"?>
<!-- Generator: Adobe Illustrator 27.5.0, SVG Export Plug-In . SVG Version: 6.00 Build 0)  -->
<svg version="1.1" xmlns="http://www.w3.org/2000/svg" xmlns:xlink="http://www.w3.org/1999/xlink" x="0px" y="0px"
	 viewBox="0 0 3710 3710" style="enable-background:new 0 0 3710 3710;" xml:space="preserve">
<g id="Background">
	<g>
		<g>
			<rect style="fill:#FFFFFF;" width="3710" height="3710"/>
		</g>
	</g>
</g>
<g id="Illustration">
	<g>
		<path style="fill:#F4F7FA;" d="M3209.524,2433.558c-81.947,315.083-312.698,606.909-871.655,757.891
			c-201.986,54.584-437.054,81.383-646.617,64.827c-308.42-24.381-631.676-163.611-888.562-321.468
			c-177.781-109.238-248.536-256.641-273.583-423.268c-15.505-103.028-13.54-213.388-8.595-326.625
			c7.437-170.346-19.645-341.884-59.739-507.634c-61.704-255.203-10.875-522.894,141.369-742.42
			c152.244-219.527,392.819-372.263,667.211-423.584c462.276-86.436,931.252-29.397,931.252-29.397
			c617.678,64.16,930.341,677.384,1006.604,1176.529C3242.077,1886.529,3278.525,2168.287,3209.524,2433.558z"/>
		<g>
			<defs>
				<polygon id="SVGID_1_" points="1092.494,2148.729 1534.728,2096.433 1490.672,531.036 580.192,554.683 622.285,2120.583 				"/>
			</defs>
			<clipPath id="SVGID_00000027579189401562935670000002447196771016016822_">
				<use xlink:href="#SVGID_1_"  style="overflow:visible;"/>
			</clipPath>
			<g style="clip-path:url(#SVGID_00000027579189401562935670000002447196771016016822_);">
				
					<linearGradient id="SVGID_00000105397862512589538590000008509225449813720472_" gradientUnits="userSpaceOnUse" x1="643.6345" y1="1503.6578" x2="1577.2915" y2="1503.6578">
					<stop  offset="0.0036" style="stop-color:#E38DDD"/>
					<stop  offset="1" style="stop-color:#9571F6"/>
				</linearGradient>
				<path style="fill:url(#SVGID_00000105397862512589538590000008509225449813720472_);" d="M1017.888,2369.489
					c-97.246-43.34-143.767-198.128-143.861-308.174c-0.109-128.48,63.11-144.409,55.25-244.323
					c-14.634-186.028-239.786-207.1-269.422-393.53c-24.227-152.406,117.051-196.156,82.542-363.711
					c-24.901-120.906-110.431-156.24-97.424-268.621c1.112-9.607,14.59-113.044,92.91-152.112
					c79.049-39.431,177.923,9.774,230.895,54.692c97.919,83.03,53.613,163.798,133.571,304.822
					c108.861,191.998,255.423,155.938,306.359,313.879c42.061,130.423-48.177,185.094,1.332,328.777
					c45.974,133.423,140.491,134.764,162.82,227.49C1624.226,2081.992,1216.242,2457.892,1017.888,2369.489z"/>
				<g>
					<defs>
						<path id="SVGID_00000063625977594555680960000002730507906441837451_" d="M1020.593,2359.998
							c-97.246-43.341-143.768-198.128-143.861-308.174c-0.11-128.481,63.11-144.409,55.25-244.323
							c-14.634-186.028-239.786-207.1-269.422-393.53c-24.227-152.407,117.051-196.156,82.542-363.712
							c-24.901-120.906-110.432-156.24-97.425-268.621c1.112-9.607,14.59-113.043,92.91-152.111
							c79.049-39.431,177.923,9.774,230.895,54.692c97.919,83.03,53.613,163.798,133.571,304.821
							c108.861,191.998,255.423,155.938,306.359,313.879c42.062,130.422-48.177,185.094,1.332,328.777
							c45.974,133.423,140.491,134.764,162.82,227.49C1626.932,2072.501,1218.948,2448.4,1020.593,2359.998z"/>
					</defs>
					<clipPath id="SVGID_00000105392385177303493800000013186662960302820787_">
						<use xlink:href="#SVGID_00000063625977594555680960000002730507906441837451_"  style="overflow:visible;"/>
					</clipPath>
					<g style="opacity:0.8;clip-path:url(#SVGID_00000105392385177303493800000013186662960302820787_);">
						<g style="opacity:0.7;">
							<path style="fill:#FFFFFF;" d="M1162.508,2435.591c0.622,0.177,1.317,0.042,1.836-0.419
								c70.649-62.805,125.059-137.629,161.715-222.397c34.762-80.381,70.707-163.498,48.556-253.988
								c-16.828-68.754-56.521-99.474-106.771-138.368c-48.139-37.257-108.049-83.625-162.777-180.682
								c-31.241-55.402-70.123-124.353-68.906-216.462c0.708-53.503,15.033-86.516,27.67-115.64
								c13.118-30.229,24.446-56.335,13.641-95.003c-17.374-62.189-59.189-95.917-107.604-134.969
								c-29.483-23.781-59.969-48.37-89.191-82.396c-82.172-95.679-112.529-240.315-90.227-429.888
								c0.126-1.072-0.622-2.046-1.713-2.171c-1.073-0.127-2.045,0.642-2.171,1.713c-22.434,190.704,8.232,336.35,91.145,432.893
								c29.455,34.296,60.083,59,89.701,82.891c47.894,38.632,89.256,71.995,106.295,132.979
								c10.429,37.331-0.115,61.63-13.464,92.394c-12.784,29.462-27.276,62.856-27.993,117.143
								c-1.229,93.166,37.939,162.625,69.411,218.438c55.117,97.743,115.373,144.379,163.789,181.852
								c49.649,38.426,88.865,68.777,105.368,136.205c21.837,89.214-13.843,171.719-48.348,251.504
								c-36.429,84.242-90.503,158.606-160.723,221.028c-0.806,0.718-0.878,1.954-0.162,2.761
								C1161.84,2435.298,1162.163,2435.493,1162.508,2435.591z"/>
						</g>
						<g style="opacity:0.7;">
							<path style="fill:#FFFFFF;" d="M1036.115,1468.822c0.834,0.238,1.755-0.105,2.218-0.887c0.549-0.93,0.241-2.128-0.689-2.677
								c-160.092-94.587-246.277-194.713-290.387-262.052c-47.705-72.825-57.743-123.84-57.838-124.346
								c-0.2-1.06-1.214-1.764-2.284-1.558c-1.061,0.2-1.758,1.224-1.558,2.284c0.097,0.514,10.282,52.293,58.409,125.763
								c44.337,67.686,130.931,168.306,291.67,263.274C1035.803,1468.712,1035.958,1468.777,1036.115,1468.822z"/>
						</g>
						<g style="opacity:0.7;">
							<path style="fill:#FFFFFF;" d="M1153.327,1718.051c0.725,0.207,1.535-0.018,2.045-0.636
								c143.601-173.926,157.499-338.976,143.873-446.809c-14.771-116.863-64.215-193.641-64.712-194.402
								c-0.593-0.904-1.806-1.159-2.706-0.569c-0.905,0.59-1.158,1.803-0.569,2.706c0.494,0.757,49.507,76.915,64.13,192.938
								c13.488,107.023-0.377,270.869-143.03,443.647c-0.688,0.832-0.571,2.065,0.263,2.751
								C1152.834,1717.856,1153.076,1717.98,1153.327,1718.051z"/>
						</g>
						<g style="opacity:0.7;">
							<path style="fill:#FFFFFF;" d="M1214.63,2099.631c44.12,12.575,93.561,22.09,148.84,27.066
								c1.075,0.097,2.024-0.696,2.122-1.771c0.097-1.076-0.704-2.025-1.772-2.122c-211.907-19.082-337.559-105.141-405.651-173.98
								c-73.782-74.589-97.782-145.598-98.015-146.307c-0.34-1.023-1.445-1.58-2.469-1.245c-1.025,0.338-1.582,1.443-1.245,2.469
								c0.236,0.715,24.442,72.447,98.792,147.677C1006.013,2002.798,1088.583,2063.705,1214.63,2099.631z"/>
						</g>
						<g style="opacity:0.7;">
							<path style="fill:#FFFFFF;" d="M867.928,979.384c0.822,0.234,1.733-0.095,2.201-0.862
								c89.656-146.439,77.969-278.374,52.379-363.267c-27.722-91.96-77.34-150.101-77.84-150.678
								c-0.7-0.814-1.94-0.909-2.757-0.202c-0.817,0.706-0.906,1.941-0.203,2.759c0.494,0.57,49.643,58.195,77.102,149.405
								c25.316,84.093,36.843,214.802-52.016,359.944c-0.564,0.92-0.275,2.124,0.647,2.687
								C867.596,979.265,867.76,979.336,867.928,979.384z"/>
						</g>
					</g>
				</g>
			</g>
		</g>
		<g>
			<g>
				
					<linearGradient id="SVGID_00000027562662999375723340000018191740694396212106_" gradientUnits="userSpaceOnUse" x1="1965.7177" y1="1891.564" x2="3179.4546" y2="1891.564">
					<stop  offset="0" style="stop-color:#FF9085"/>
					<stop  offset="1" style="stop-color:#FB6FBB"/>
				</linearGradient>
				<path style="fill:url(#SVGID_00000027562662999375723340000018191740694396212106_);" d="M2385.482,2703.846
					c105.402-15.025,192.569-151.133,222.823-256.938c35.322-123.53-21.11-156.177,13.836-250.11
					c65.065-174.892,287.37-133.441,366.971-304.608c65.074-139.928-58.801-220.728,20.315-372.406
					c57.088-109.45,149.028-119.986,167.324-231.628c1.564-9.544,16.955-112.713-47.657-171.753
					c-65.214-59.589-173.787-39.37-237.043-10.692c-116.927,53.01-96.458,142.829-212.008,256.534
					c-157.319,154.805-288.384,79.952-380.661,217.883c-76.2,113.898-4.404,191.211-91.401,315.82
					c-80.785,115.711-172.05,91.093-218.94,174.147C1881.171,2261.159,2170.493,2734.492,2385.482,2703.846z"/>
				<g>
					<defs>
						<path id="SVGID_00000090987484957626216140000003316978687671829131_" d="M2385.482,2693.976
							c105.401-15.025,192.569-151.133,222.823-256.938c35.323-123.53-21.11-156.177,13.837-250.11
							c65.065-174.892,287.369-133.442,366.971-304.608c65.074-139.929-58.8-220.728,20.315-372.406
							c57.088-109.45,149.029-119.986,167.324-231.628c1.564-9.544,16.955-112.713-47.657-171.752
							c-65.213-59.589-173.787-39.37-237.043-10.692c-116.928,53.01-96.458,142.829-212.009,256.534
							c-157.319,154.805-288.384,79.952-380.661,217.883c-76.2,113.898-4.404,191.211-91.401,315.82
							c-80.785,115.711-172.05,91.094-218.94,174.147C1881.171,2251.29,2170.493,2724.623,2385.482,2693.976z"/>
					</defs>
					<clipPath id="SVGID_00000085243622595321874740000009749650608746375823_">
						<use xlink:href="#SVGID_00000090987484957626216140000003316978687671829131_"  style="overflow:visible;"/>
					</clipPath>
					<g style="opacity:0.8;clip-path:url(#SVGID_00000085243622595321874740000009749650608746375823_);">
						<g style="opacity:0.7;">
							<path style="fill:#FFFFFF;" d="M2228.282,2727.775c-0.647,0-1.278-0.321-1.65-0.906
								c-50.728-79.765-82.544-166.637-94.561-258.207c-11.398-86.831-23.183-176.617,22.923-257.57
								c35.03-61.508,81.622-80.171,140.609-103.802c56.507-22.635,126.833-50.805,206.069-129.143
								c45.231-44.717,101.523-100.369,125.6-189.284c13.985-51.648,9.257-87.323,5.088-118.795
								c-4.33-32.667-8.068-60.878,12.922-95.104c33.755-55.045,83.213-76.019,140.478-100.304
								c34.873-14.789,70.931-30.08,108.36-54.792c105.25-69.491,174.091-200.266,204.606-388.692
								c0.173-1.065,1.159-1.797,2.243-1.618c1.067,0.172,1.79,1.178,1.618,2.243c-30.698,189.549-100.112,321.212-206.313,391.33
								c-37.728,24.908-73.954,40.271-108.987,55.128c-56.649,24.024-105.571,44.772-138.674,98.75
								c-20.263,33.043-16.783,59.301-12.377,92.545c4.219,31.838,9.001,67.926-5.189,120.33
								c-24.355,89.934-81.062,145.998-126.627,191.046c-79.798,78.891-150.529,107.225-207.362,129.992
								c-58.281,23.345-104.314,41.785-138.667,102.107c-45.454,79.811-33.756,168.937-22.442,255.124
								c11.942,91.001,43.562,177.339,93.983,256.618c0.578,0.911,0.309,2.12-0.601,2.7
								C2229.004,2727.676,2228.64,2727.775,2228.282,2727.775z"/>
						</g>
						<g style="opacity:0.7;">
							<path style="fill:#FFFFFF;" d="M2614.83,1832.678c-0.867,0-1.659-0.582-1.889-1.461c-0.273-1.044,0.352-2.113,1.396-2.386
								c179.887-47.083,290.217-119.749,351.095-172.418c65.84-56.96,89.477-103.269,89.707-103.73
								c0.483-0.964,1.65-1.364,2.623-0.872c0.966,0.483,1.355,1.659,0.872,2.623c-0.234,0.468-24.222,47.472-90.644,104.936
								c-61.192,52.94-172.05,125.971-352.664,173.243C2615.161,1832.658,2614.993,1832.678,2614.83,1832.678z"/>
						</g>
						<g style="opacity:0.7;">
							<path style="fill:#FFFFFF;" d="M2433.792,2040.234c-0.754,0-1.471-0.439-1.792-1.172
								c-90.427-206.627-58.552-369.165-15.89-469.133c46.238-108.338,114.834-168.622,115.52-169.218
								c0.818-0.707,2.055-0.62,2.758,0.195c0.708,0.816,0.62,2.052-0.194,2.758c-0.683,0.592-68.694,60.399-114.559,167.97
								c-42.307,99.227-73.884,260.598,15.946,465.861c0.433,0.988-0.017,2.142-1.007,2.574
								C2434.32,2040.181,2434.053,2040.234,2433.792,2040.234z"/>
						</g>
						<g style="opacity:0.7;">
							<path style="fill:#FFFFFF;" d="M2270.244,2390.395c-45.878,0-96.032-4.402-150.558-14.769
								c-1.06-0.201-1.756-1.224-1.555-2.285s1.232-1.755,2.285-1.555c209.021,39.733,353.45-8.587,437.803-56.125
								c91.402-51.508,133.946-113.219,134.364-113.837c0.608-0.891,1.823-1.123,2.716-0.521c0.893,0.606,1.126,1.821,0.521,2.715
								c-0.423,0.623-43.364,62.973-135.487,114.942C2497.413,2354.454,2401.311,2390.395,2270.244,2390.395z"/>
						</g>
						<g style="opacity:0.7;">
							<path style="fill:#FFFFFF;" d="M2910.733,1408.087c-0.855,0-1.64-0.567-1.881-1.432
								c-46.083-165.405,1.321-289.083,49.201-363.711c51.867-80.839,115.522-123.153,116.16-123.571
								c0.896-0.591,2.115-0.343,2.707,0.562c0.592,0.903,0.34,2.115-0.562,2.709c-0.631,0.413-63.693,42.358-115.102,122.548
								c-47.397,73.933-94.31,196.477-48.639,360.416c0.29,1.039-0.317,2.118-1.359,2.406
								C2911.085,1408.063,2910.907,1408.087,2910.733,1408.087z"/>
						</g>
					</g>
				</g>
			</g>
			<g>
				<g>
					<defs>
						<path id="SVGID_00000170969535616989911470000000293117808122664595_" d="M2427.311,2316.22
							c98.715-39.883,150.668-192.933,154.644-302.906c4.643-128.397-57.976-146.546-46.595-246.121
							c21.189-185.396,246.944-198.511,283.138-383.779c29.589-151.457-110.057-200.164-69.658-366.397
							C2777.992,897.064,2864.716,864.77,2855.682,752c-0.772-9.64-10.592-113.488-87.485-155.295
							c-77.609-42.195-178.156,3.491-232.68,46.512c-100.788,79.524-59.359,161.805-144.243,299.919
							c-115.567,188.038-260.766,146.829-317.242,302.874c-46.637,128.857,41.616,186.679-12.931,328.525
							c-50.653,131.718-145.159,129.724-170.745,221.604C1831.493,2007.509,2225.961,2397.569,2427.311,2316.22z"/>
					</defs>
					<use xlink:href="#SVGID_00000170969535616989911470000000293117808122664595_"  style="overflow:visible;fill:#D8DEE8;"/>
					<clipPath id="SVGID_00000176762590520284682280000004801769020199993511_">
						<use xlink:href="#SVGID_00000170969535616989911470000000293117808122664595_"  style="overflow:visible;"/>
					</clipPath>
					<g style="opacity:0.8;clip-path:url(#SVGID_00000176762590520284682280000004801769020199993511_);">
						<g style="opacity:0.7;">
							<path style="fill:#FFFFFF;" d="M2282.347,2386.814c-0.485,0-0.971-0.179-1.35-0.539
								c-68.386-65.254-120.122-141.953-153.769-227.965c-31.904-81.563-64.889-165.892-39.563-255.542
								c19.242-68.118,59.994-97.418,111.586-134.515c49.424-35.535,110.932-79.76,169.052-174.825
								c33.178-54.273,74.466-121.809,76.5-213.897c1.179-53.495-11.971-86.992-23.574-116.546
								c-12.043-30.672-22.442-57.161-10.281-95.423c19.559-61.539,62.537-93.769,112.301-131.091
								c30.302-22.725,61.636-46.224,92.04-79.195c85.498-92.718,120.939-236.193,105.338-426.437
								c-0.087-1.077,0.713-2.021,1.789-2.109c1.089-0.068,2.019,0.713,2.11,1.789c15.692,191.38-20.092,335.852-106.362,429.406
								c-30.646,33.236-62.126,56.844-92.569,79.675c-49.226,36.917-91.74,68.801-110.919,129.147
								c-11.742,36.939-2.062,61.595,10.193,92.81c11.737,29.896,25.042,63.78,23.843,118.06
								c-2.058,93.143-43.65,161.177-77.07,215.845c-58.533,95.746-120.398,140.225-170.107,175.966
								c-50.974,36.651-91.236,65.599-110.108,132.402c-24.968,88.388,7.774,172.096,39.438,253.047
								c33.442,85.486,84.86,161.712,152.832,226.568c0.78,0.746,0.809,1.983,0.065,2.765
								C2283.377,2386.612,2282.862,2386.814,2282.347,2386.814z"/>
						</g>
						<g style="opacity:0.7;">
							<path style="fill:#FFFFFF;" d="M2442.775,1425.11c-0.693,0-1.364-0.37-1.719-1.021c-0.517-0.949-0.166-2.137,0.782-2.652
								c163.33-88.879,252.994-185.902,299.452-251.642c50.245-71.098,62.077-121.728,62.191-122.229
								c0.239-1.053,1.282-1.71,2.337-1.476c1.053,0.237,1.715,1.283,1.476,2.337c-0.115,0.512-12.122,51.897-62.81,123.625
								c-46.699,66.079-136.786,163.581-300.775,252.82C2443.412,1425.033,2443.091,1425.11,2442.775,1425.11z"/>
						</g>
						<g style="opacity:0.7;">
							<path style="fill:#FFFFFF;" d="M2316.84,1670.046c-0.587,0-1.167-0.263-1.551-0.763
								c-137.377-178.885-145.443-344.323-128.019-451.608c18.882-116.269,71.006-191.256,71.53-192
								c0.62-0.881,1.838-1.096,2.724-0.471c0.882,0.621,1.094,1.842,0.471,2.724c-0.519,0.737-52.189,75.121-70.895,190.554
								c-17.257,106.483-9.181,270.715,127.288,448.418c0.659,0.857,0.497,2.084-0.358,2.741
								C2317.675,1669.915,2317.255,1670.046,2316.84,1670.046z"/>
						</g>
						<g style="opacity:0.7;">
							<path style="fill:#FFFFFF;" d="M2092.771,2070.97c-1.031,0-1.893-0.806-1.951-1.848c-0.058-1.077,0.768-1.999,1.847-2.058
								c212.452-11.591,341.059-93.167,411.538-159.558c76.367-71.942,102.856-142.06,103.114-142.76
								c0.374-1.012,1.5-1.531,2.512-1.156c1.012,0.374,1.531,1.497,1.157,2.511c-0.261,0.707-26.984,71.539-103.942,144.098
								c-70.962,66.905-200.417,149.107-414.168,160.77C2092.842,2070.97,2092.806,2070.97,2092.771,2070.97z"/>
						</g>
						<g style="opacity:0.7;">
							<path style="fill:#FFFFFF;" d="M2628.125,941.91c-0.683,0-1.345-0.358-1.703-0.995
								c-84.432-149.512-68.098-280.953-39.529-364.891c30.949-90.924,82.59-147.279,83.107-147.837
								c0.737-0.792,1.971-0.835,2.763-0.104c0.792,0.734,0.838,1.971,0.104,2.763c-0.514,0.553-51.664,56.407-82.325,146.592
								c-28.267,83.148-44.4,213.37,39.283,361.556c0.531,0.94,0.2,2.132-0.741,2.663
								C2628.781,941.828,2628.451,941.91,2628.125,941.91z"/>
						</g>
					</g>
				</g>
			</g>
		</g>
		<g>
			<g>
				<g>
					<path style="fill:#99A0AA;" d="M1485.058,1134.675l-0.58-0.067c-9.379-1.07-17.968,5.106-19.169,13.795l-216.812,1566.975
						c-1.252,9.034,5.657,16.125,15.413,15.838l0.603-0.017c9.736-0.286,18.627-7.822,19.868-16.826l215.453-1562.082
						C1501.028,1143.627,1494.421,1135.742,1485.058,1134.675z"/>
					<path style="fill:#99A0AA;" d="M2177.493,2581.757L1987.84,1145.524c-1.091-8.27-8.908-14.089-17.466-12.993l-0.53,0.068
						c-8.575,1.098-14.647,8.714-13.547,17.009l190.775,1440.364c1.058,7.997,8.625,12.658,16.889,10.415l0.511-0.139
						C2172.722,2598.007,2178.545,2589.731,2177.493,2581.757z"/>
					<path style="fill:#99A0AA;" d="M1572.031,2460.556l64.845-1447.249c0.372-8.333,7.657-14.806,16.278-14.454l0.534,0.022
						c8.638,0.353,15.345,7.415,14.966,15.774l-65.606,1451.461c-0.363,8.058-7.499,13.356-15.926,11.835l-0.521-0.094
						C1578.188,2476.333,1571.672,2468.592,1572.031,2460.556z"/>
				</g>
				<g>
					<g>
						<polygon style="fill:#B7C0CE;" points="2288.063,670.331 2288.063,2027.75 1841.428,2068.46 1082.764,2137.656 
							1082.764,621.624 1216.206,626.989 						"/>
						<polygon style="fill:#FFFFFF;" points="2298.547,670.331 2298.547,2027.75 1851.911,2068.46 1093.247,2137.656 
							1093.247,621.624 1226.689,626.989 						"/>
						<g>
							<path style="fill:#B7C0CE;" d="M2314.968,654.407v26.618c0,7.097-6.1,12.627-13.293,12.327l-4.739-0.166L1237.3,653.075
								l-159.763-6.03l-0.985-0.034c-8.982-0.332-16.653-7.029-16.653-14.957v-29.85c0-7.93,7.386-14.026,16.37-13.66l83.205,3.564
								l1142.119,48.939C2308.785,641.348,2314.968,647.344,2314.968,654.407z"/>
							<path style="fill:#B7C0CE;" d="M2314.968,2009.627v26.618c0,7.096-6.018,13.36-13.114,14.026l-396.958,37.213l-811.5,76.125
								c-8.861,0.833-16.57-4.93-16.57-12.859v-29.85c0-7.928,7.287-14.992,16.149-15.758l0.995-0.067l701.895-62.3l500.897-44.442
								l5.072-0.366C2308.929,1997.334,2314.968,2002.564,2314.968,2009.627z"/>
						</g>
					</g>
				</g>
				<path style="opacity:0.2;fill:#B7C0CE;" d="M1904.519,2087.483l-811.311,76.125c-8.861,0.833-16.382-4.93-16.382-12.859v-29.85
					c0-7.928,6.844-14.992,15.706-15.758l0.715-0.067V647.045l-0.482-0.034c-8.861-0.332-15.939-7.029-15.939-14.957v-29.85
					c0-7.93,7.287-14.026,16.149-13.66l82.083,3.564c17.591,9.262,35.029,20.688,51.121,34.881
					c8.895,7.829,17.464,16.49,25.427,26.086c31.581,38.112,54.222,90.749,56.688,163.442
					c7.696,226.942-27.208,273.35,29.927,333.283c7.763,8.13,17.229,16.491,28.723,25.586c3.331,2.632,6.799,5.331,10.464,8.096
					c50.171,37.88,122.632,69.994,180.335,127.262c49.671,49.307,88.419,117.203,92.648,223.445
					c1.633,40.577-1.765,86.785-11.526,139.656c-2.697,14.559-4.763,28.584-6.263,42.111c-2.598,23.586-3.431,45.675-2.731,66.329
					c0.566,15.825,1.999,30.784,4.298,45.009c3.564,22.32,9.194,42.743,16.49,61.465c6.63,16.991,14.626,32.549,23.787,46.841
					c30.883,48.24,74.659,82.121,121.5,107.174c18.222,9.796,36.946,18.224,55.536,25.686
					C1869.437,2075.624,1887.295,2081.887,1904.519,2087.483z"/>
			</g>
			<path style="opacity:0.5;fill:#B7C0CE;" d="M2015.313,1787.277l54.241-67.203l-70.13-61.289l-54.683,67.284l-140.809-122.129
				c13.703-23.902,23.829-49.276,30.53-75.288c59.64-17.719,114.529-55.304,153.997-110.685
				c91.244-128.034,67.845-305.863-52.193-399.652c-109.036-85.192-263.281-72.625-363.324,23.99l-177.209-135.39l39.73-9.647
				l1.732-0.427l32.536-7.911l-6.228-27.102l-0.332-1.434l-4.748-20.627l-0.175-0.771l-11.188-48.611l-39.792,9.332l-0.646,0.142
				l-27.281,6.394l-1.727,0.398l-86.299,20.059l-62.727,14.512v0.152l0.545,0.188l2.679,69.413l0.737,0.406l3.152,82.671
				l0.111,1.819l1.137,30.497l0.022,0.397l-0.182,0.516l0.209,0.066l1.453,39.459l48.202-2.5l0.797-0.046l23.442-1.216l1.48-0.076
				l27.873-1.451l-1.23-34.01l-0.06-1.809l-1.267-34.893l175.478,132.816c-9.089,18.16-16.12,36.988-21.257,56.146
				c-55.344,15.046-107.545,46.669-148.623,94.49c-108.395,126.195-96.802,314.672,25.46,417.549
				c108.208,91.053,265.778,83.105,371.535-10.021l141.542,121.695l-57.018,70.155l71.543,61.026l56.555-70.067l93.296,80.214
				l61.742-77.194L2015.313,1787.277z M1879.441,1096.51c79.513,61.567,94.731,179.464,34.185,263.858
				c-19.196,26.757-43.829,47.097-71.109,60.525c-7.213-68.866-38.123-134.614-92.347-182.626
				c-43.472-38.494-95.982-60.595-150.302-66.838c5.498-11.872,12.24-23.375,20.287-34.302
				C1682.753,1052.104,1799.179,1034.363,1879.441,1096.51z M1747.548,1439.444c-32.342-2.476-64.248-13.791-92.154-34.639
				c-43.722-32.664-68.718-81.978-73.112-133.866c37.294,3.176,73.583,17.636,103.493,43.896
				C1722.887,1347.413,1743.645,1392.423,1747.548,1439.444z M1435.335,1612.63c-79.497-67.493-86.986-190.526-16.557-273.124
				c18.585-21.794,40.716-38.485,64.625-50.05c8.285,76.988,46.367,149.819,111.773,198.212
				c40.977,30.318,87.515,47.075,134.802,51.44c-7.227,15.755-16.56,30.855-28.135,44.809
				C1633.621,1666.151,1514.133,1679.53,1435.335,1612.63z"/>
			<g>
				
					<linearGradient id="SVGID_00000085967493520758315610000017621228496777930916_" gradientUnits="userSpaceOnUse" x1="159.6065" y1="2790.8486" x2="-408.926" y2="3358.0095" gradientTransform="matrix(0.6626 -0.7489 0.7489 0.6626 -521.2871 -566.0527)">
					<stop  offset="0" style="stop-color:#FF9085"/>
					<stop  offset="1" style="stop-color:#FB6FBB"/>
				</linearGradient>
				<path style="fill:url(#SVGID_00000085967493520758315610000017621228496777930916_);" d="M1766.901,1238.266
					c-117.113-103.699-299.777-88.698-406.883,35.996c-108.395,126.195-96.804,314.672,25.458,417.55
					c108.209,91.053,265.779,83.105,371.536-10.021l141.542,121.694l-57.018,70.155l71.545,61.026l56.554-70.067l93.296,80.214
					l61.743-77.195l-92.63-80.341l54.242-67.203l-70.129-61.289l-54.684,67.283l-140.81-122.129
					C1888.931,1484.868,1869.975,1329.534,1766.901,1238.266z M1452.067,1612.63c-79.497-67.493-86.987-190.526-16.556-273.124
					c69.882-81.954,189.712-92.52,266.998-24.671c76.615,67.26,83.762,187.479,16.065,269.082
					C1650.353,1666.15,1530.864,1679.53,1452.067,1612.63z"/>
				
					<linearGradient id="SVGID_00000141456596803648842850000013831037964627704462_" gradientUnits="userSpaceOnUse" x1="-1930.569" y1="-2776.9988" x2="-2487.3276" y2="-2221.5835" gradientTransform="matrix(-0.6068 0.7948 -0.7948 -0.6068 -1666.7627 1400.0569)">
					<stop  offset="0" style="stop-color:#AA80F9"/>
					<stop  offset="0.9964" style="stop-color:#6165D7"/>
				</linearGradient>
				<path style="fill:url(#SVGID_00000141456596803648842850000013831037964627704462_);" d="M1611.907,1487.668
					c124.769,92.314,301.068,59.693,393.282-69.701c91.245-128.034,67.846-305.864-52.192-399.652
					c-109.035-85.192-263.281-72.626-363.323,23.99l-177.21-135.39l39.73-9.647l1.732-0.426l32.535-7.911l-6.228-27.102
					l-0.333-1.433l-4.748-20.627l-0.173-0.77l-11.188-48.612l-39.793,9.332l-0.645,0.142l-27.281,6.394l-1.728,0.398l-85.893,20.059
					l-62.323,14.512v0.153l0.141,0.188l2.476,69.413l0.637,0.406l3.101,82.671l0.086,1.819l1.125,30.497l0.015,0.396l-0.185,0.516
					l0.208,0.066l1.452,39.46l48.202-2.5l0.795-0.046l23.444-1.216l1.479-0.076l27.874-1.451l-1.23-34.01l-0.06-1.809l-1.267-34.893
					l175.478,132.817C1467.453,1248.402,1499.219,1404.292,1611.907,1487.668z M1896.172,1096.51
					c79.512,61.567,94.732,179.464,34.185,263.858c-60.956,84.964-176.671,105.369-258.231,44.438
					c-82.339-61.514-98.269-182.074-35.241-267.679C1699.483,1052.104,1815.91,1034.363,1896.172,1096.51z"/>
			</g>
		</g>
		<g>
			
				<linearGradient id="SVGID_00000083774181090789630290000014519142144663934120_" gradientUnits="userSpaceOnUse" x1="1560.5089" y1="1764.8755" x2="1518.6101" y2="1931.3676" gradientTransform="matrix(-0.3992 -0.9169 -0.9169 0.3992 3664.4155 2400.708)">
				<stop  offset="0" style="stop-color:#FFC444"/>
				<stop  offset="0.9964" style="stop-color:#F36F56"/>
			</linearGradient>
			<path style="fill:url(#SVGID_00000083774181090789630290000014519142144663934120_);" d="M1350.198,1719.558
				c0,0,12.709-15.197,36.552-15.916c23.844-0.719,56.335-14.867,70.287-16.111c3.366-0.301,5.035-1.267,5.321-2.496
				c0.589-2.529-14.901-6.219-28.641-6.676c-24.363-0.811-38.573,8.537-41.858,3.732c-3.673-5.372,12.052-20.035,9.172-23.319
				c-2.233-2.545-12.924,5.627-24.368,10.61c-8.123,3.537-39.894,41.528-39.894,41.528L1350.198,1719.558z"/>
			
				<linearGradient id="SVGID_00000004528659602527865090000012917300296577568664_" gradientUnits="userSpaceOnUse" x1="1301.5879" y1="1578.5127" x2="1095.7557" y2="1785.7942">
				<stop  offset="0" style="stop-color:#FF9085"/>
				<stop  offset="1" style="stop-color:#FB6FBB"/>
			</linearGradient>
			<path style="fill:url(#SVGID_00000004528659602527865090000012917300296577568664_);" d="M986.91,1694.189
				c-1.218-17.261-4.929-69.895,22.836-85.639c28.609-16.223,74.234,16.019,92.804,29.141
				c78.724,55.63,80.624,123.131,124.064,130.501c19.508,3.309,50.539-4.972,97.242-66.144c8.781,5.837,17.561,11.673,26.342,17.51
				c-1.452,68.595-36.929,130.166-93.143,157.349c-95.263,46.065-190.229-35.569-201.632-45.692
				C1049.159,1825.655,992.529,1773.861,986.91,1694.189z"/>
			
				<linearGradient id="SVGID_00000113345231137330205520000006315490011843281796_" gradientUnits="userSpaceOnUse" x1="1257.5135" y1="2920.4136" x2="1338.4017" y2="2920.4136" gradientTransform="matrix(-0.9996 0.029 0.029 0.9996 2205.9817 -30.9913)">
				<stop  offset="0" style="stop-color:#444B8C"/>
				<stop  offset="0.9964" style="stop-color:#26264F"/>
			</linearGradient>
			<path style="fill:url(#SVGID_00000113345231137330205520000006315490011843281796_);" d="M958.902,2908.18
				c-4.423,3.596-5.236,12.575-5.767,18.444c-0.238,2.622-0.356,3.933-0.064,4.859c2.138,6.754,15.238,7.464,35.782,9.563
				c32.464,3.315,42.125,5.869,44.665,1.039c2.381-4.528-3.381-11.941-4.03-12.758c-3.489-4.394-7.77-5.992-16.048-8.716
				c-15.316-5.04-25.665-7.8-28.798-8.635C965.075,2906.753,961.807,2905.819,958.902,2908.18z"/>
			
				<linearGradient id="SVGID_00000111150614067006665110000016832089345543356837_" gradientUnits="userSpaceOnUse" x1="1654.7427" y1="2907.2043" x2="1690.2299" y2="2833.7542" gradientTransform="matrix(-0.9925 0.1226 0.1226 0.9925 2273.2068 -162.4015)">
				<stop  offset="0" style="stop-color:#FFC444"/>
				<stop  offset="0.9964" style="stop-color:#F36F56"/>
			</linearGradient>
			<path style="fill:url(#SVGID_00000111150614067006665110000016832089345543356837_);" d="M978.206,2878.521l3.251,36.993
				c-0.923,1.787-11.918,7.146-20.652,2.551l-8.349-36.363L978.206,2878.521z"/>
			
				<linearGradient id="SVGID_00000030468678060538908080000005748594803921456022_" gradientUnits="userSpaceOnUse" x1="1687.4821" y1="2854.6201" x2="1773.4213" y2="2854.6201" gradientTransform="matrix(-0.9642 0.2651 0.2651 0.9642 2192.8501 -308.9189)">
				<stop  offset="0" style="stop-color:#444B8C"/>
				<stop  offset="0.9964" style="stop-color:#26264F"/>
			</linearGradient>
			<path style="fill:url(#SVGID_00000030468678060538908080000005748594803921456022_);" d="M1242.679,2891.822
				c-5.302,5.854-6.509,16.635-1.9,21.946c4.531,5.221,11.346,1.305,30.67,1.882c20.7,0.619,26.105,5.508,40.172,1.627
				c5.682-1.571,15.719-5.381,15.529-9.439c-0.134-2.854-5.243-4.328-22.31-10.045c-24.225-8.115-24.119-8.558-29.263-9.411
				C1262.656,2886.242,1249.681,2884.092,1242.679,2891.822z"/>
			
				<linearGradient id="SVGID_00000058577930479599377840000014963498662943218318_" gradientUnits="userSpaceOnUse" x1="1534.1278" y1="2884.7944" x2="1570.3684" y2="2809.7847" gradientTransform="matrix(-0.9802 0.1979 0.1979 0.9802 2204.0603 -227.1835)">
				<stop  offset="0" style="stop-color:#FFC444"/>
				<stop  offset="0.9964" style="stop-color:#F36F56"/>
			</linearGradient>
			<path style="fill:url(#SVGID_00000058577930479599377840000014963498662943218318_);" d="M1255.942,2858.06l10.382,34.536
				c-0.785,1.852-11.339,8.032-20.397,4.117l-15.419-33.521L1255.942,2858.06z"/>
			
				<linearGradient id="SVGID_00000093893289434724914790000010304352060973295793_" gradientUnits="userSpaceOnUse" x1="1294.3121" y1="2750.9766" x2="1065.0964" y2="2234.2698">
				<stop  offset="0" style="stop-color:#444B8C"/>
				<stop  offset="0.9964" style="stop-color:#26264F"/>
			</linearGradient>
			<path style="fill:url(#SVGID_00000093893289434724914790000010304352060973295793_);" d="M1163.694,2101.679
				c1.487,116.065,9.407,246.567,28.412,388.35c18.782,140.131,45.104,266.746,73.816,378.085
				c-13.247,3.564-26.493,7.128-39.739,10.692c-33.607-31.336-76.001-80.665-96.458-150.375
				c-12.696-43.266-8.465-65.499-16.518-118.715c-12.823-84.731-38.797-129.124-65.642-197.452
				c-24.124-61.399-52.639-151.509-67.928-271.956C1040.99,2127.432,1102.342,2114.555,1163.694,2101.679z"/>
			
				<linearGradient id="SVGID_00000013874604807968799650000008323734828547940013_" gradientUnits="userSpaceOnUse" x1="1294.3123" y1="2750.9766" x2="1065.0966" y2="2234.2698">
				<stop  offset="0" style="stop-color:#444B8C"/>
				<stop  offset="0.9964" style="stop-color:#26264F"/>
			</linearGradient>
			<path style="opacity:0.3;fill:url(#SVGID_00000013874604807968799650000008323734828547940013_);" d="M1163.694,2101.679
				c-36.18,27.581-81.147,71.073-79.725,123.479c1.055,38.888,26.658,46.041,45.674,102.768
				c23.316,69.554-5.091,88.885,11.418,176.99c12.289,65.576,27.382,51.425,45.675,131.315
				c16.289,71.135,9.055,103.018,34.256,159.862c14.501,32.709,32.272,56.834,44.928,72.021
				c-13.246,3.564-26.493,7.128-39.739,10.692c-33.606-31.336-76.001-80.665-96.458-150.375
				c-12.696-43.266-8.465-65.499-16.519-118.715c-12.822-84.731-38.796-129.124-65.641-197.452
				c-24.124-61.399-52.639-151.509-67.928-271.956C1040.99,2127.432,1102.343,2114.555,1163.694,2101.679z"/>
			
				<linearGradient id="SVGID_00000120559890299822939870000011746955644388399759_" gradientUnits="userSpaceOnUse" x1="735.4921" y1="2790.1575" x2="506.2873" y2="2273.4753" gradientTransform="matrix(0.9925 -0.1226 0.1226 0.9925 83.3764 107.9742)">
				<stop  offset="0" style="stop-color:#444B8C"/>
				<stop  offset="0.9964" style="stop-color:#26264F"/>
			</linearGradient>
			<path style="fill:url(#SVGID_00000120559890299822939870000011746955644388399759_);" d="M1017.759,2102.205
				c-8.099,147.617-14.759,297.98-19.803,451.008c-3.787,114.831-6.565,228.206-8.408,340.088
				c-13.531,1.672-27.062,3.344-40.594,5.014c-13.075-24.342-30.444-61.557-42.343-109.258
				c-14.452-57.933-11.108-92.338-17.447-152.382c-7.114-67.344-17.441-82.015-35.74-166.967
				c-37.139-172.408-55.709-258.613-14.294-312.24C852.573,2140.059,894.72,2096.387,1017.759,2102.205z"/>
			
				<linearGradient id="SVGID_00000150062990844574616200000005989857012154182323_" gradientUnits="userSpaceOnUse" x1="-610.873" y1="1504.1929" x2="191.9431" y2="2049.5015" gradientTransform="matrix(-0.9636 0.2674 0.2674 0.9636 105.4189 77.5997)">
				<stop  offset="0" style="stop-color:#311944"/>
				<stop  offset="1" style="stop-color:#6B3976"/>
			</linearGradient>
			<path style="fill:url(#SVGID_00000150062990844574616200000005989857012154182323_);" d="M1132.435,1649.946
				c18.856-24.529-7.803-53.743-16.429-77.38c-13.111-35.927-11.621-77.385-29.833-111.3
				c-54.199-100.916-184.986-8.209-254.143,19.365c-25.643,10.224-54.636,14.46-78.238,29.265
				c-33.099,20.762-36.657,57.692-50.224,90.702c-14.792,35.993-44.163,64.511-79.707,79.81
				c-44.395,19.108-101.377,20.571-129.807,65.696c-32.919,52.252-2.967,128.205,35.975,169.305
				c75.959,80.169,190.233,36.318,273.684-4.839c13.915-6.863,83.777-43.026,145.199-121.467
				c33.978-43.397,53.972-85.217,65.753-115.213c3.013-6.145,8.191-14.015,16.948-17.48c10.506-4.16,21.041,0.045,26.071,1.796
				c21.092,7.344,55.423,13.193,72.684-5.794C1131.11,1651.597,1131.798,1650.774,1132.435,1649.946z"/>
			<g>
				<g>
					
						<linearGradient id="SVGID_00000010292315978346836100000008417493063928285580_" gradientUnits="userSpaceOnUse" x1="1149.2523" y1="1801.9321" x2="789.7692" y2="2174.4609">
						<stop  offset="0" style="stop-color:#FF9085"/>
						<stop  offset="1" style="stop-color:#FB6FBB"/>
					</linearGradient>
					<path style="fill:url(#SVGID_00000010292315978346836100000008417493063928285580_);" d="M1019.038,1615.818
						c0,0-126.841-36.99-182.703,26.246c-8.697,9.845-17.509,24.344-24.265,56.347c-23.706,112.283,39.388,152.277,30.774,254.161
						c-0.987,11.671-12.001,123.702-93.361,192.557c-38.691,32.744-82.776,46.824-81.691,75.855
						c0.781,20.899,24.613,39.946,46.681,46.68c42.22,12.885,66.855-22.697,122.536-35.01
						c58.191-12.868,71.676,17.065,163.381,29.176c30.524,4.031,169.851,22.431,204.227-35.01
						c14.629-24.447-3.406-39.807-29.175-140.041c-2.607-10.137-47.214-186.289-33.714-263.048c1.17-6.654,5.112-33.63,3.949-69.413
						c-0.288-8.857-1.405-18.744-3.949-30.544c0,0-10.78-50.003-49.672-92.941
						C1086.471,1624.669,1079.817,1618.25,1019.038,1615.818z"/>
				</g>
			</g>
			<g style="opacity:0.3;">
				<g>
					
						<linearGradient id="SVGID_00000123425170102603591280000014239867256437821337_" gradientUnits="userSpaceOnUse" x1="840.0755" y1="2400.7427" x2="1111.0792" y2="1688.9487">
						<stop  offset="0" style="stop-color:#FF9085"/>
						<stop  offset="1" style="stop-color:#FB6FBB"/>
					</linearGradient>
					<path style="fill:url(#SVGID_00000123425170102603591280000014239867256437821337_);" d="M836.335,1642.065
						c-12.784-0.143-22.76,49.217-24.265,56.347c-23.706,112.283,39.388,152.277,30.774,254.161
						c-0.987,11.671-12.001,123.702-93.361,192.557c-38.691,32.745-82.777,46.825-81.691,75.855
						c0.781,20.899,24.613,39.946,46.681,46.68c42.22,12.885,66.855-22.697,122.536-35.01
						c58.191-12.868,71.676,17.065,163.381,29.176c30.524,4.031,169.851,22.431,204.227-35.01c3.55-5.933,4.89-8.528,4.542-11.062
						c-3.838-27.917-132.828-2.526-165.155-53.402c-31.583-49.704,50.248-138.917,22.837-165.572
						c-21.408-20.817-76.002,29.045-119.896,5.71c-27.531-14.636-32.07-48.081-45.675-119.896
						C877.382,1756.502,855.742,1642.281,836.335,1642.065z"/>
				</g>
			</g>
			<g>
				
					<linearGradient id="SVGID_00000114779085346218849070000002066907589998712497_" gradientUnits="userSpaceOnUse" x1="2807.5969" y1="1475.068" x2="2815.8484" y2="1255.2753" gradientTransform="matrix(0.984 0.1784 -0.1784 0.984 -1518.1509 -244.2395)">
					<stop  offset="0" style="stop-color:#FFC444"/>
					<stop  offset="0.9964" style="stop-color:#F36F56"/>
				</linearGradient>
				<path style="fill:url(#SVGID_00000114779085346218849070000002066907589998712497_);" d="M978.313,1533.546
					c1.718,8.025,10.461,51.09-7.158,62.17c-3.819,2.404-11.158,3.778-25.837,6.53c-9.61,1.801-17.672,2.904-23.359,3.585
					c0.822,7.221,3.254,18.975,11.588,29.667c23.361,29.972,70.203,22.217,76.883,20.999c23.561-4.291,46.747-11.57,52.347-16.02
					c8.525-6.775,15.229-11.858,19.194-17.022c-9.119-4.405-27.527-16.026-39.881-19.829c-9.233-2.84-17.899-4.867-25.783-6.322
					c-1.294-8.319-2.592-16.638-3.888-24.958C1001.05,1559.414,989.681,1546.481,978.313,1533.546z"/>
				
					<linearGradient id="SVGID_00000024685857096025441610000016604826353370964921_" gradientUnits="userSpaceOnUse" x1="2805.0215" y1="1281.0344" x2="2801.4895" y2="1565.6068" gradientTransform="matrix(0.984 0.1784 -0.1784 0.984 -1518.1509 -244.2395)">
					<stop  offset="0" style="stop-color:#FFC444"/>
					<stop  offset="0.9964" style="stop-color:#F36F56"/>
				</linearGradient>
				<path style="fill:url(#SVGID_00000024685857096025441610000016604826353370964921_);" d="M977.488,1555.009
					c0,0,3.185,31.559,33.862,37.12c27.468,4.98,48.145-61.397,34.088-78.566c-4.689-5.727-16.265-11.176-26.301-10.887
					c-7.058,0.205-30.897,9.283-34.225,33.137c-4.747-5.002-10.663-6.439-13.58-4.345c-3.701,2.657-1.719,10.383-1.268,12.132
					C971.621,1549.664,975.58,1553.423,977.488,1555.009z"/>
			</g>
			<g>
				<path style="fill:#26264F;" d="M1026.332,2067.268l85.538-211.827c5.786-14.328-1.831-30.552-16.55-35.253l-169.277-54.072
					c-9.796-2.229-19.75,3.041-23.414,12.395l-87.472,223.314c-4.356,11.12,1.779,23.579,13.249,26.909l173.477,50.336
					C1011.851,2081.961,1022.396,2076.872,1026.332,2067.268z"/>
			</g>
			
				<linearGradient id="SVGID_00000136375608332177469000000007251111500448658846_" gradientUnits="userSpaceOnUse" x1="1059.8523" y1="1916.4575" x2="1034.3258" y2="2069.6169">
				<stop  offset="0" style="stop-color:#FFC444"/>
				<stop  offset="0.2327" style="stop-color:#FCB048"/>
				<stop  offset="0.9964" style="stop-color:#F36F56"/>
			</linearGradient>
			<path style="fill:url(#SVGID_00000136375608332177469000000007251111500448658846_);" d="M1015.457,1945.401
				c0,0,17.128-11.418,17.128-22.837s11.418-28.547,17.128-28.547s5.709,5.709,0,17.128c-5.709,11.419,22.838,5.708,34.256-5.709
				c11.418-11.418,22.837-11.418,17.128-5.71c-9.027,9.027-11.419,17.128-11.419,17.128s-11.419,45.676-61.375,42.821
				L1015.457,1945.401z"/>
			
				<linearGradient id="SVGID_00000005980383417441781940000002151348643756532370_" gradientUnits="userSpaceOnUse" x1="1036.976" y1="1693.5873" x2="677.4922" y2="2066.1167">
				<stop  offset="0" style="stop-color:#FF9085"/>
				<stop  offset="1" style="stop-color:#FB6FBB"/>
			</linearGradient>
			<path style="fill:url(#SVGID_00000005980383417441781940000002151348643756532370_);" d="M895.56,1619.968
				c-36.523-16.294-97.629,50.878-108.477,62.804c-57.555,63.268-139.212,206.691-74.222,291.176
				c54.22,70.484,199.788,86.012,319.724-5.709c-5.709-11.418-11.419-22.837-17.128-34.256
				c-12.455,4.516-94.342,32.861-154.153-11.419c-12.687-9.393-18.329-25.537-20.387-47.374
				c-3.837-40.69,44.126-51.522,71.771-112.487C937.158,1708.74,927.053,1634.019,895.56,1619.968z"/>
		</g>
		<g>
			<g>
				<path style="fill:#552D63;" d="M2531.714,469.36c-93.947,0-180.87,22.873-251.687,61.677
					c-108.799,59.609-179.64,156.871-179.64,266.719c0,62.366,22.82,120.673,62.492,170.351l-41.611,110.615
					c-3.265,8.671,2.407,17.529,10.694,19.12l-0.012,0.016c0,0,0.134,0.014,0.321,0.034c0.634,0.107,1.28,0.169,1.941,0.188
					c4.272,0.381,13.645,1.022,19.586-0.019c-0.529-0.97-1.085-1.962-1.652-2.954c39.101-7.254,98.522-18.164,138.53-24.989
					c68.796,35.383,151.739,56.035,241.038,56.035c130.935,0,248.264-44.42,327.373-114.572
					c64.794-57.439,103.953-132.135,103.953-213.826C2963.04,616.378,2769.918,469.36,2531.714,469.36z"/>
				<g>
					<g>
						
							<linearGradient id="SVGID_00000010281895456792046540000000187088837240316054_" gradientUnits="userSpaceOnUse" x1="2118.3899" y1="797.7565" x2="2981.0439" y2="797.7565">
							<stop  offset="0" style="stop-color:#FFC444"/>
							<stop  offset="0.9964" style="stop-color:#F36F56"/>
						</linearGradient>
						<path style="fill:url(#SVGID_00000010281895456792046540000000187088837240316054_);" d="M2981.044,797.756
							c0,81.691-39.16,156.387-103.953,213.826c-79.111,70.152-196.439,114.572-327.374,114.572
							c-89.3,0-172.242-20.653-241.039-56.035c-45.492,7.76-116.104,20.806-153.375,27.749
							c-10.952,2.042-19.964-8.705-16.032-19.146l41.611-110.615c-39.671-49.678-62.492-107.985-62.492-170.351
							c0-109.848,70.841-207.111,179.641-266.72c70.816-38.803,157.74-61.676,251.686-61.676
							C2787.921,469.36,2981.044,616.378,2981.044,797.756z"/>
						
							<linearGradient id="SVGID_00000142135999548028673800000004655386064870088377_" gradientUnits="userSpaceOnUse" x1="2181.4451" y1="609.8428" x2="2850.8203" y2="1491.3959">
							<stop  offset="0" style="stop-color:#FFC444"/>
							<stop  offset="0.9964" style="stop-color:#F36F56"/>
						</linearGradient>
						<path style="opacity:0.3;fill:url(#SVGID_00000142135999548028673800000004655386064870088377_);" d="M2877.091,1011.582
							c-79.111,70.152-196.439,114.572-327.374,114.572c-89.3,0-172.242-20.653-241.039-56.035
							c-45.492,7.76-116.104,20.806-153.375,27.749c-10.952,2.042-19.964-8.705-16.032-19.146l41.611-110.615
							c-39.671-49.678-62.492-107.985-62.492-170.351c0-109.848,70.841-207.111,179.641-266.72
							c56.903,7.735,106.302,27.52,136.298,67.216c65.99,87.435-8.451,210.073,60.45,272.132
							c68.391,61.549,177.729-26.677,277.162,15.113C2809.313,901.197,2847.683,936.299,2877.091,1011.582z"/>
					</g>
				</g>
			</g>
			<g>
				<polygon style="fill:#FFFFFF;" points="2540.19,638.785 2254.863,725.756 2540.19,812.727 2825.517,725.756 				"/>
				<path style="fill:#FFFFFF;" d="M2540.19,843.71l-179.577-54.737v125.042c0,20.523,14.353,38.274,34.43,42.531
					c96.438,20.447,189.168,21.082,277.958,0.669c19.668-4.522,33.535-22.145,33.535-42.326V793.006L2540.19,843.71z"/>
				<path style="fill:#FFFFFF;" d="M2320.95,895.084c-15.6,6.93-29.243,7.076-40.927,0.436c-3.417-1.941-5.116-5.933-4.341-9.785
					l25.396-126.268l25.203,125.314C2327.136,889.036,2324.917,893.321,2320.95,895.084z"/>
				<polygon style="fill:#FFFFFF;" points="2540.19,712.872 2297.381,738.673 2297.381,780.793 2304.577,780.793 2305.315,743.88 
									"/>
			</g>
		</g>
		<g>
			
				<linearGradient id="SVGID_00000107579931616094715660000011012511658627131523_" gradientUnits="userSpaceOnUse" x1="-1618.7802" y1="2564.6501" x2="-1577.63" y2="2601.2534" gradientTransform="matrix(0.9902 -0.14 0.14 0.9902 3021.0398 206.9384)">
				<stop  offset="0" style="stop-color:#444B8C"/>
				<stop  offset="0.9964" style="stop-color:#26264F"/>
			</linearGradient>
			<path style="fill:url(#SVGID_00000107579931616094715660000011012511658627131523_);" d="M1788.745,2991.702
				c1.171-6.45,22.004-12.29,32.319-3.649c5.122,4.29,8.65,12.987,5.686,16.915c-1.078,1.429,3.338,3.942-0.893,3.992
				C1811.823,3009.123,1787.58,2998.112,1788.745,2991.702z"/>
			
				<linearGradient id="SVGID_00000018194976372129177740000007567815825802181050_" gradientUnits="userSpaceOnUse" x1="-1898.4823" y1="3631.1301" x2="-1898.4823" y2="3559.4426" gradientTransform="matrix(0.9988 0.0498 -0.0498 0.9988 3897.4861 -528.7908)">
				<stop  offset="0" style="stop-color:#FFC444"/>
				<stop  offset="0.9964" style="stop-color:#F36F56"/>
			</linearGradient>
			<path style="fill:url(#SVGID_00000018194976372129177740000007567815825802181050_);" d="M1811.526,2991.737l21.611,1.077
				c-7.487-13.613,1.515-50.637,1.515-50.637l-23.337,0.685c0,0,0.575,10.749,1.998,26.715
				C1813.801,2975.044,1812.902,2983.278,1811.526,2991.737z"/>
			
				<linearGradient id="SVGID_00000168077737074522613790000017709769932785810834_" gradientUnits="userSpaceOnUse" x1="-1614.6431" y1="2560.0005" x2="-1573.4932" y2="2596.6035" gradientTransform="matrix(0.9902 -0.14 0.14 0.9902 3021.0398 206.9384)">
				<stop  offset="0" style="stop-color:#444B8C"/>
				<stop  offset="0.9964" style="stop-color:#26264F"/>
			</linearGradient>
			<path style="fill:url(#SVGID_00000168077737074522613790000017709769932785810834_);" d="M1808.681,2991.411
				c0,0,25.795-5.944,28.585-0.827c2.791,5.118,4.957,18.818-11.408,18.376C1809.491,3008.517,1807.227,2995.749,1808.681,2991.411z
				"/>
			
				<linearGradient id="SVGID_00000096056703912759308000000010149016563709445558_" gradientUnits="userSpaceOnUse" x1="-1475.568" y1="2997.9224" x2="-1434.416" y2="3034.5271" gradientTransform="matrix(1 0 0 1 3123.8826 0)">
				<stop  offset="0" style="stop-color:#444B8C"/>
				<stop  offset="0.9964" style="stop-color:#26264F"/>
			</linearGradient>
			<path style="fill:url(#SVGID_00000096056703912759308000000010149016563709445558_);" d="M1657.164,3017.978
				c2.063-6.223,23.509-9.09,32.513,0.91c4.47,4.964,6.746,14.07,3.262,17.543c-1.268,1.265,2.752,4.372-1.443,3.828
				C1677.577,3038.457,1655.115,3024.161,1657.164,3017.978z"/>
			
				<linearGradient id="SVGID_00000033360925810024366720000004361208100619188619_" gradientUnits="userSpaceOnUse" x1="-1593.7302" y1="4000.6072" x2="-1593.7302" y2="3928.918" gradientTransform="matrix(0.9813 0.1926 -0.1926 0.9813 4024.1045 -582.0115)">
				<stop  offset="0" style="stop-color:#FFC444"/>
				<stop  offset="0.9964" style="stop-color:#F36F56"/>
			</linearGradient>
			<path style="fill:url(#SVGID_00000033360925810024366720000004361208100619188619_);" d="M1682.507,3023.972l21.233,4.167
				c-5.457-14.545,8.764-49.895,8.764-49.895l-23.193-2.67c0,0-0.974,10.721-1.856,26.726
				C1687.151,3007.778,1685.082,3015.799,1682.507,3023.972z"/>
			
				<linearGradient id="SVGID_00000034068971127466226260000008699983088314382734_" gradientUnits="userSpaceOnUse" x1="-1471.4304" y1="2993.2729" x2="-1430.2793" y2="3029.877" gradientTransform="matrix(1 0 0 1 3123.8826 0)">
				<stop  offset="0" style="stop-color:#444B8C"/>
				<stop  offset="0.9964" style="stop-color:#26264F"/>
			</linearGradient>
			<path style="fill:url(#SVGID_00000034068971127466226260000008699983088314382734_);" d="M1676.945,3020.479
				c0,0,26.373-2.274,28.419,3.184c2.047,5.456,2.275,19.324-13.868,16.596C1675.353,3037.531,1674.898,3024.571,1676.945,3020.479z
				"/>
			
				<linearGradient id="SVGID_00000143607357686680042940000017142156968113270187_" gradientUnits="userSpaceOnUse" x1="-3561.6333" y1="2546.3928" x2="-3800.0911" y2="2716.72" gradientTransform="matrix(1 0 0 1 5732.9619 0)">
				<stop  offset="0" style="stop-color:#444B8C"/>
				<stop  offset="0.9964" style="stop-color:#26264F"/>
			</linearGradient>
			<path style="fill:url(#SVGID_00000143607357686680042940000017142156968113270187_);" d="M1797.403,2945.137
				c13.33,1.48,26.66,2.964,39.99,4.444c18.003-19.956,44.88-54.752,59.244-103.676c27.516-93.722-15.564-155.239,13.33-179.217
				c33.313-27.645,99.116,47.046,244.382,68.134c46.754,6.786,150.547,21.856,192.544-34.067
				c17.025-22.672,26.804-60.883,13.33-93.31c-24.156-58.132-103.72-51.15-365.833-102.196
				c-100.97-19.666-116.924-26.104-140.912-14.654C1734.844,2547.23,1784.315,2867.466,1797.403,2945.137z"/>
			
				<linearGradient id="SVGID_00000016772477586954280460000000832973562477469109_" gradientUnits="userSpaceOnUse" x1="-4075.929" y1="2754.9597" x2="-3485.4016" y2="2754.9597" gradientTransform="matrix(1 0 0 1 5732.9619 0)">
				<stop  offset="0" style="stop-color:#444B8C"/>
				<stop  offset="0.9964" style="stop-color:#26264F"/>
			</linearGradient>
			<path style="fill:url(#SVGID_00000016772477586954280460000000832973562477469109_);" d="M1678.422,2982.84
				c13.33,1.479,26.66,2.963,39.989,4.443c18.003-19.956,44.881-54.752,59.244-103.676c27.517-93.722-15.564-155.238,13.33-179.217
				c33.313-27.645,99.117,47.046,244.383,68.134c46.754,6.787,150.547,21.856,192.543-34.067
				c17.025-22.672,26.804-60.883,13.33-93.31c-24.156-58.132-103.72-51.15-365.833-102.196
				c-100.971-19.665-116.924-26.104-140.912-14.654C1615.864,2584.932,1665.334,2905.167,1678.422,2982.84z"/>
			<path style="fill:#B7C0CE;" d="M2257.599,2918.629c-1.748,0.016-3.237-1.303-3.416-3.061l-67.784-666.596
				c-0.19-1.871,1.172-3.542,3.043-3.733c1.864-0.172,3.543,1.173,3.733,3.045l60.322,593.198l-5.516-608.148
				c-0.017-1.881,1.494-3.419,3.375-3.437c1.881-0.017,3.42,1.494,3.437,3.375l6.185,681.921c0.016,1.82-1.4,3.331-3.219,3.432
				C2257.706,2918.627,2257.653,2918.629,2257.599,2918.629z"/>
			<path style="fill:#B7C0CE;" d="M975.977,3029.578c-0.045,0-0.09,0-0.135-0.001c-1.828-0.055-3.287-1.544-3.304-3.374
				l-6.285-692.956c-0.017-1.881,1.494-3.42,3.375-3.437c1.881-0.017,3.42,1.495,3.437,3.375l5.497,606.069l42.107-606.767
				c0.131-1.877,1.788-3.296,3.634-3.162c1.877,0.13,3.292,1.757,3.163,3.634l-48.124,693.45
				C979.219,3028.188,977.746,3029.563,975.977,3029.578z"/>
			<path style="fill:#B7C0CE;" d="M2940.468,3011.76c-1.762,0.016-3.257-1.322-3.421-3.092l-64.059-692.432
				c-0.173-1.873,1.206-3.531,3.078-3.705c1.879-0.169,3.532,1.205,3.705,3.078l56.519,610.932l-5.39-594.276
				c-0.017-1.881,1.495-3.42,3.375-3.437s3.419,1.494,3.437,3.375l6.133,676.121c0.017,1.826-1.41,3.34-3.233,3.432
				C2940.563,3011.758,2940.514,3011.759,2940.468,3011.76z"/>
			<g>
				<polygon style="opacity:0.81;fill:#F4F7FA;" points="2940.431,2300.036 2262.512,2231.977 961.942,2302.919 1644.118,2378.337 
									"/>
				<polygon style="fill:#B7C0CE;" points="1644.118,2378.338 2940.431,2300.035 2940.722,2332.174 1644.41,2410.476 
					962.234,2335.057 961.942,2302.918 				"/>
			</g>
			<path style="fill:#B7C0CE;" d="M1655.784,3156.794c-0.045,0-0.09,0-0.135-0.001c-1.828-0.055-3.287-1.545-3.304-3.374
				l-6.81-750.773c-0.017-1.881,1.494-3.419,3.375-3.437c1.881-0.017,3.42,1.494,3.437,3.375l6.018,663.526l45.884-664.262
				c0.131-1.876,1.741-3.29,3.634-3.164c1.875,0.13,3.292,1.756,3.163,3.633l-51.897,751.305
				C1659.025,3155.403,1657.553,3156.778,1655.784,3156.794z"/>
			<g>
				
					<linearGradient id="SVGID_00000094585287185221776870000015350123363900202122_" gradientUnits="userSpaceOnUse" x1="3153.0598" y1="2809.6443" x2="3169.0112" y2="3012.6599" gradientTransform="matrix(1 0 0 1 -626.2627 0)">
					<stop  offset="0.0036" style="stop-color:#26264F"/>
					<stop  offset="1" style="stop-color:#444B8C"/>
				</linearGradient>
				<path style="fill:url(#SVGID_00000094585287185221776870000015350123363900202122_);" d="M2560.502,2910.689
					c0,0-71.339,4.958-72.387,9.615c-1.049,4.659,48.422,22.665,65.707,23.336c17.285,0.672,31.505-4.437,29.94-11.757
					c-1.565-7.323-7.615-25.737-7.615-25.737L2560.502,2910.689z"/>
				
					<linearGradient id="SVGID_00000090266925093072399940000010956724388177534854_" gradientUnits="userSpaceOnUse" x1="2223.6619" y1="2616.2134" x2="2220.3127" y2="2373.3928" gradientTransform="matrix(0.9853 0.171 -0.171 0.9853 820.6597 -36.2046)">
					<stop  offset="0" style="stop-color:#311944"/>
					<stop  offset="1" style="stop-color:#893976"/>
				</linearGradient>
				<path style="fill:url(#SVGID_00000090266925093072399940000010956724388177534854_);" d="M2557.132,2878.992l-1.266,33.668
					c0,0,10.852,6.126,19.467,2.606l9.579-35.504L2557.132,2878.992z"/>
				
					<linearGradient id="SVGID_00000093897126406041431170000007943816819453102510_" gradientUnits="userSpaceOnUse" x1="2953.5481" y1="2796.0667" x2="2969.4995" y2="2999.084" gradientTransform="matrix(1 0 0 1 -626.2627 0)">
					<stop  offset="0.0036" style="stop-color:#26264F"/>
					<stop  offset="1" style="stop-color:#444B8C"/>
				</linearGradient>
				<path style="fill:url(#SVGID_00000093897126406041431170000007943816819453102510_);" d="M2360.99,2897.112
					c0,0-71.34,4.958-72.388,9.615c-1.049,4.659,48.422,22.665,65.707,23.336c17.286,0.672,31.505-4.437,29.941-11.758
					c-1.566-7.323-7.616-25.738-7.616-25.738L2360.99,2897.112z"/>
				
					<linearGradient id="SVGID_00000180355757215262933920000005358736652539633034_" gradientUnits="userSpaceOnUse" x1="2024.7723" y1="2636.9514" x2="2021.4233" y2="2394.1338" gradientTransform="matrix(0.9853 0.171 -0.171 0.9853 820.6597 -36.2046)">
					<stop  offset="0" style="stop-color:#311944"/>
					<stop  offset="1" style="stop-color:#893976"/>
				</linearGradient>
				<path style="fill:url(#SVGID_00000180355757215262933920000005358736652539633034_);" d="M2357.62,2865.416l-1.266,33.667
					c0,0,10.852,6.126,19.467,2.607l9.579-35.503L2357.62,2865.416z"/>
				
					<linearGradient id="SVGID_00000083075884433885371150000011887508796105138839_" gradientUnits="userSpaceOnUse" x1="2923.8025" y1="2378.5493" x2="2832.7146" y2="2514.0703">
					<stop  offset="0" style="stop-color:#444B8C"/>
					<stop  offset="0.9964" style="stop-color:#26264F"/>
				</linearGradient>
				<path style="fill:url(#SVGID_00000083075884433885371150000011887508796105138839_);" d="M2549.552,2883.75
					c13.33,1.48,26.66,2.964,39.99,4.443c18.003-19.955,44.88-54.751,59.245-103.675c27.693-94.325-12.413-162.299,13.33-179.217
					c36.437-23.943,115.407,113.908,242.166,110.367c52.009-1.453,119.893-26.924,145.985-82.396
					c3.94-8.375,23.285-52.214,4.444-93.31c-19.453-42.432-115.957-60.896-308.171-96.099
					c-82.508-15.11-124.17-22.646-140.912-14.654C2486.994,2485.843,2536.466,2806.079,2549.552,2883.75z"/>
				
					<linearGradient id="SVGID_00000125586706517113970300000017950575764404539581_" gradientUnits="userSpaceOnUse" x1="2346.0042" y1="2676.9451" x2="2999.7107" y2="2676.9451">
					<stop  offset="0" style="stop-color:#444B8C"/>
					<stop  offset="0.9964" style="stop-color:#26264F"/>
				</linearGradient>
				<path style="fill:url(#SVGID_00000125586706517113970300000017950575764404539581_);" d="M2346.024,2884.319
					c13.788,2.399,27.576,4.799,41.364,7.198c16.747-24.667,42.094-63.317,70.438-112.358
					c59.085-102.231,58.005-122.994,85.31-136.155c57.792-27.848,101.457,47.388,244.383,68.134
					c46.754,6.787,150.547,21.857,192.543-34.067c17.025-22.672,26.804-60.883,13.33-93.31
					c-24.156-58.132-103.721-51.15-365.833-102.196c-102.218-19.908-116.153-23.457-140.912-14.653
					C2348.369,2516.083,2345.675,2817.165,2346.024,2884.319z"/>
				
					<linearGradient id="SVGID_00000140725094583058253620000006980195764448337059_" gradientUnits="userSpaceOnUse" x1="2695.5601" y1="2186.3708" x2="2986.5276" y2="2464.2117">
					<stop  offset="0" style="stop-color:#FFC444"/>
					<stop  offset="0.9964" style="stop-color:#F36F56"/>
				</linearGradient>
				<path style="fill:url(#SVGID_00000140725094583058253620000006980195764448337059_);" d="M2632.379,2083.762
					c13.607-33.277,42.815-52.413,57.961-62.337c7.58-4.968,14.583-8.691,21.693-11.594
					c54.849-22.394,109.612-20.854,119.381-20.121c23.688,1.775,82.196,6.153,125.544,43.713
					c20.981,18.181,37.753,43.561,62.207,186.619c34.104,199.515,6.424,179.065,33.325,259.934
					c14.234,42.793,36.41,91.891,12.955,123.246c-7.575,10.128-18.399,13.035-40.464,22.963
					c-82.42,37.087-156.317,30.696-201.222,26.248c-49.413-4.895-74.386-7.693-87.489-25.154
					c-20.928-27.888,0.615-63.331,4.375-124.669c2.699-44.039-7.314-78.938-27.34-148.729
					C2666.75,2191.625,2606.309,2147.509,2632.379,2083.762z"/>
				
					<linearGradient id="SVGID_00000101069765221837201130000005428393283735524494_" gradientUnits="userSpaceOnUse" x1="2347.624" y1="2273.717" x2="2340.991" y2="2303.9976">
					<stop  offset="0" style="stop-color:#311944"/>
					<stop  offset="1" style="stop-color:#893976"/>
				</linearGradient>
				<path style="fill:url(#SVGID_00000101069765221837201130000005428393283735524494_);" d="M2400.145,2282.435l-52.665-10.129
					c-3.784-0.728-7.667-0.766-11.465-0.113l-45.555,7.833c0,0,29.622,11.915,54.801,8.179c25.179-3.736,52.685,10.43,52.685,10.43
					L2400.145,2282.435z"/>
				<g>
					<g>
						
							<linearGradient id="SVGID_00000112608999459117041490000001663190651248258701_" gradientUnits="userSpaceOnUse" x1="6083.8828" y1="1047.385" x2="6104.77" y2="1427.0392" gradientTransform="matrix(0.9663 0.2576 -0.2576 0.9663 -2744.3408 -923.8408)">
							<stop  offset="0" style="stop-color:#311944"/>
							<stop  offset="1" style="stop-color:#893976"/>
						</linearGradient>
						<path style="fill:url(#SVGID_00000112608999459117041490000001663190651248258701_);" d="M2748.879,1952.827
							c-8.857-13.382,4.4-39.126,9.645-49.31c0.181-0.352,0.411-0.812,0.905-1.723c8.055-14.862,10.119-16.893,13.962-19.466
							l5.343-3.299c0,0,0.31-0.121,0.635-0.238c3.429-1.219,15.114-1.575,17.482-1.068c7.562,1.614,15.614,32.422,13.317,75.979
							c0.314,1.662,0.616,3.337,0.908,5.025c1.191,6.878,2.137,13.621,2.869,20.212c0.699,6.305,9.641,6.162,15.972,5.759
							c25.699-1.64,38.276,0.547,39.37,4.373c2.049,7.173-28.434,30.622-66.074,35.894c-50.516,0.377-91.608-5.003-87.192-12.957
							c1.961-3.532,41.101-13.759,52.109-23.896c10.079-9.282,9.257-18.863,10.087-25.723
							C2773.008,1962.668,2755.632,1963.032,2748.879,1952.827z"/>
						<path style="fill:#26264F;" d="M2763.06,1866.659c-4.153,9.161,5.923,27.554,9.643,30.223
							c0.418,0.299,2.772,2.156,4.888,5.337c0.288,0.434,0.542,0.942,0.769,1.597c2.956,8.505-10.565,18.511-7.955,22.316
							c1.893,2.764,11.082-0.929,12.175,1.453c1.03,2.248-6.608,6.895-5.438,9.581c0.882,2.03,5.582,0.174,8.547,3.285
							c2.291,2.404,2.557,5.81,2.609,7.511c0.367,12.089-27.048,55.75-32.759,75.45c-6.058,20.893,4.778,40.78,44.135,95.731
							c55.984,78.166,83.976,117.249,99.538,128.422c76.059,54.6,165.495,47.909,202.17,42.211
							c44.061-6.843,135.087-20.984,164.403-91.088c33.697-80.583-32.648-190.854-100.716-209.578
							c-31.128-8.561-47.7,4.443-88.125-9.624c-44.646-15.539-39.238-43.01-80.573-59.234
							c-55.13-21.64-90.703,17.044-128.262-11.122c-20.44-15.33-17.069-32.157-42.212-44.433
							C2801.093,1852.587,2768.504,1854.653,2763.06,1866.659z"/>
						
							<linearGradient id="SVGID_00000075154115890895126870000007228765737754633900_" gradientUnits="userSpaceOnUse" x1="6054.8174" y1="1048.9843" x2="6075.7041" y2="1428.6371" gradientTransform="matrix(0.9663 0.2576 -0.2576 0.9663 -2744.3408 -923.8408)">
							<stop  offset="0" style="stop-color:#311944"/>
							<stop  offset="1" style="stop-color:#893976"/>
						</linearGradient>
						<path style="fill:url(#SVGID_00000075154115890895126870000007228765737754633900_);" d="M2775.255,1922.962
							c3.308-4.545,9.12-0.275,9.153,5.605c0.035,5.88-5.663,11.993-11.19,10.832
							C2767.69,1938.238,2770.804,1929.078,2775.255,1922.962z"/>
					</g>
				</g>
				
					<linearGradient id="SVGID_00000170242415296266450070000000892638038063174069_" gradientUnits="userSpaceOnUse" x1="2615.9421" y1="2269.7073" x2="2906.8398" y2="2547.4814">
					<stop  offset="0" style="stop-color:#FFC444"/>
					<stop  offset="0.9964" style="stop-color:#F36F56"/>
				</linearGradient>
				<path style="opacity:0.3;fill:url(#SVGID_00000170242415296266450070000000892638038063174069_);" d="M2866.41,2594.472
					c-14.537-28.945,21.084-67.421-2.188-111.547c-19.765-37.478-55.669-29.081-72.177-63.429
					c-19.939-41.486,23.425-72.492,21.871-135.607c-1.856-75.45-66.778-150.978-104.985-144.355
					c-24.72,4.285-27.896,41.165-45.289,81.539c15.39,33.748,33.372,76.028,49.663,132.806
					c20.026,69.794,30.039,104.69,27.34,148.729c-3.759,61.341-25.303,96.783-4.375,124.67
					c13.102,17.458,38.076,20.261,87.489,25.153c44.904,4.446,118.801,10.839,201.222-26.246
					c10.433-4.695,18.243-8.211,24.613-11.679C2920.828,2633.845,2877.94,2617.431,2866.41,2594.472z"/>
				
					<linearGradient id="SVGID_00000074412028337576105910000000548016117481293705_" gradientUnits="userSpaceOnUse" x1="2629.0203" y1="2237.123" x2="2959.0186" y2="2552.2339">
					<stop  offset="0" style="stop-color:#FFC444"/>
					<stop  offset="0.9964" style="stop-color:#F36F56"/>
				</linearGradient>
				<path style="fill:url(#SVGID_00000074412028337576105910000000548016117481293705_);" d="M2386.733,2297.801
					c1.493-6.722,2.987-13.439,4.48-20.16c101.182,18.138,145.428-2.221,166.802-26.013c19.618-21.835,11.253-33.116,42.65-116.468
					c29.905-79.389,63.835-99.793,80.926-107.173c9.547-4.123,16.138-6.856,24.059-4.921
					c36.452,8.908,48.504,103.902,38.276,174.978c-5.762,40.042-17.062,118.563-81.474,155.837c-1.184,0.685-3.059,1.77-5.534,3.094
					c-8.11,4.339-40.342,19.838-103.826,8.388C2478.243,2351.858,2405.218,2308.961,2386.733,2297.801z"/>
			</g>
			<g>
				<path style="fill:#26264F;" d="M1789.765,2374.238l-91.125-213.457c-4.553-10.664,1.561-22.865,12.829-25.601l166.92-40.538
					c9.021-2.19,18.288,2.544,21.799,11.138l83.815,205.159c4.174,10.216-1.328,21.811-11.88,25.04l-159.61,48.835
					C1803.342,2387.62,1793.531,2383.058,1789.765,2374.238z"/>
				<path style="fill:#FFFFFF;" d="M1793.889,2363.971l-85.117-199.384c-4.252-9.962,1.459-21.357,11.984-23.914l155.915-37.865
					c8.426-2.046,17.082,2.376,20.361,10.404l78.289,191.633c3.899,9.543-1.24,20.373-11.097,23.389l-149.087,45.616
					C1806.571,2376.47,1797.406,2372.21,1793.889,2363.971z"/>
			</g>
			
				<linearGradient id="SVGID_00000031900259661193415040000003345802367836211611_" gradientUnits="userSpaceOnUse" x1="-3989.0601" y1="2228.5081" x2="-4014.2129" y2="2343.3357" gradientTransform="matrix(1 0 0 1 5732.9619 0)">
				<stop  offset="0" style="stop-color:#FFC444"/>
				<stop  offset="0.9964" style="stop-color:#F36F56"/>
			</linearGradient>
			<path style="fill:url(#SVGID_00000031900259661193415040000003345802367836211611_);" d="M1741.342,2305.358l-2.734-25.153
				l-14.493-27.627c-1.974-3.762-3.005-7.947-3.005-12.196v-27.434l17.498,40.463c0,0,11.482-10.389,15.858-12.577
				c4.374-2.187,3.827,6.562,0.547,9.843c-3.281,3.28,1.64,30.073-1.641,32.808l1.094,16.404L1741.342,2305.358z"/>
			
				<linearGradient id="SVGID_00000069374774542566012020000011511452055721547190_" gradientUnits="userSpaceOnUse" x1="-3761.78" y1="2218.6294" x2="-3470.8826" y2="2496.4036" gradientTransform="matrix(1 0 0 1 5732.9619 0)">
				<stop  offset="0.0036" style="stop-color:#E38DDD"/>
				<stop  offset="1" style="stop-color:#9571F6"/>
			</linearGradient>
			<path style="fill:url(#SVGID_00000069374774542566012020000011511452055721547190_);" d="M1880.229,2145.146
				c13.607-33.274,42.815-52.411,57.961-62.335c35.836-23.48,58.778-19.193,141.075-31.714
				c109.676-16.688,122.805-32.499,159.665-19.685c48.42,16.833,73.711,60.786,85.301,80.927
				c58.429,101.541-9.883,153.151,7.655,355.42c7.163,82.607,25.528,154.393-18.591,196.848
				c-9.29,8.939-19.681,13.615-40.463,22.966c-82.421,37.085-156.317,30.692-201.222,26.246
				c-49.412-4.892-74.386-7.695-87.488-25.153c-20.929-27.887,0.616-63.33,4.374-124.671c2.699-44.039-7.314-78.936-27.34-148.729
				C1914.599,2253.01,1854.158,2208.896,1880.229,2145.146z"/>
			<g>
				<g>
					
						<linearGradient id="SVGID_00000065033358656160600810000012931516555264569217_" gradientUnits="userSpaceOnUse" x1="-181.7476" y1="2988.2515" x2="-0.2851" y2="3216.5544" gradientTransform="matrix(0.9663 0.2576 -0.2576 0.9663 2988.6211 -923.8408)">
						<stop  offset="0" style="stop-color:#FFC444"/>
						<stop  offset="0.9964" style="stop-color:#F36F56"/>
					</linearGradient>
					<path style="fill:url(#SVGID_00000065033358656160600810000012931516555264569217_);" d="M2063.809,1991.243
						c-4.992-17.789,3.737-34.263,5.661-37.813c8.055-14.861,10.119-16.891,13.962-19.466l5.343-3.296c0,0,0.31-0.124,0.635-0.241
						c3.428-1.22,15.114-1.575,17.482-1.07c7.563,1.615,15.615,32.425,13.317,75.982c0.313,1.66,0.616,3.333,0.908,5.023
						c1.191,6.878,2.137,13.621,2.869,20.213c0.699,6.306,9.64,6.161,15.972,5.757c25.699-1.64,38.276,0.547,39.37,4.374
						c2.049,7.173-28.434,30.621-66.074,35.896c-50.516,0.375-91.608-5.003-87.192-12.958c1.962-3.531,41.101-13.758,52.109-23.895
						c10.078-9.283,9.257-18.865,10.086-25.725C2085.203,2012.439,2067.485,2004.348,2063.809,1991.243z"/>
					<path style="fill:#26264F;" d="M2073.101,1918.296c0.045,13.494,6.403,27.906,9.643,30.222
						c0.418,0.299,2.772,2.159,4.887,5.339c0.289,0.432,0.542,0.94,0.769,1.595c2.956,8.504-10.565,18.511-7.955,22.319
						c1.893,2.762,11.082-0.932,12.175,1.454c1.03,2.244-6.608,6.893-5.438,9.581c0.882,2.03,5.583,0.173,8.547,3.282
						c1.477,1.549,1.043,2.776,2.609,7.51c0.885,2.677,2.123,5.607,3.083,7.236c4.664,7.923,17.873,10.818,20.415,7.647
						c0.707-0.884,0.099-1.626,0.822-4.591c0,0,0.67-2.749,2.582-5.926c2.732-4.54,9.328-7.787,15.983-12.579
						c12.324-8.875,15.674-16.44,16.679-18.996c0.358-0.91,0.58-1.598,0.74-2.093c3.205-9.946,3.219-24.557-1.252-33.542
						c-7.49-15.05-24.389-7.905-38.22-22.818c-15.959-17.205-6.454-40.724-15.114-43.321
						C2094.509,1867.751,2073.019,1893.344,2073.101,1918.296z"/>
					
						<linearGradient id="SVGID_00000012444582603650701830000014240930248229956014_" gradientUnits="userSpaceOnUse" x1="-173.0619" y1="2976.7605" x2="29.5409" y2="3231.6606" gradientTransform="matrix(0.9663 0.2576 -0.2576 0.9663 2988.6211 -923.8408)">
						<stop  offset="0" style="stop-color:#FFC444"/>
						<stop  offset="0.9964" style="stop-color:#F36F56"/>
					</linearGradient>
					<path style="fill:url(#SVGID_00000012444582603650701830000014240930248229956014_);" d="M2085.296,1974.599
						c3.308-4.545,9.12-0.275,9.153,5.605c0.034,5.879-5.663,11.993-11.19,10.832
						C2077.731,1989.875,2080.845,1980.715,2085.296,1974.599z"/>
				</g>
				<path style="fill:#26264F;" d="M2087.978,1964.761l-7.673,9.982c0,0-8.271,12.229-13.101,5.53
					c-3.945-5.474-4.968-5.352-5.209-5.123c-0.046,0.044-0.058,0.109-0.069,0.106c-0.069-0.018,0.579-2.725,1.161-5.104
					c-2.042,2.932-4.858,7.688-6.562,14.088c-1.656,6.216-3.431,12.871,0.076,19.265c0.202,0.369,4.066,7.174,11.28,8.82
					c0,0,2.836,0.648,14.823-1.459c0,0-13.102-9.507-13.302-11.766c-0.543-6.141,7.974-9.46,14.298-22.05
					C2086.138,1972.195,2087.341,1967.792,2087.978,1964.761z"/>
			</g>
			
				<linearGradient id="SVGID_00000062191760767865820060000004076352175843322529_" gradientUnits="userSpaceOnUse" x1="-3869.1699" y1="2331.0928" x2="-3578.2722" y2="2608.8672" gradientTransform="matrix(1 0 0 1 5732.9619 0)">
				<stop  offset="0.0036" style="stop-color:#E38DDD"/>
				<stop  offset="1" style="stop-color:#9571F6"/>
			</linearGradient>
			<path style="opacity:0.3;fill:url(#SVGID_00000062191760767865820060000004076352175843322529_);" d="M2114.26,2655.857
				c-14.537-28.945,21.085-67.421-2.188-111.547c-19.764-37.477-55.669-29.081-72.177-63.429
				c-19.94-41.486,23.425-72.492,21.871-135.607c-1.856-75.45-66.778-150.979-104.985-144.355
				c-24.72,4.285-27.895,41.164-45.289,81.539c15.39,33.748,33.372,76.028,49.663,132.806
				c20.026,69.794,30.039,104.69,27.34,148.729c-3.759,61.341-25.303,96.784-4.374,124.671
				c13.102,17.458,38.076,20.26,87.488,25.153c44.905,4.446,118.802,10.839,201.222-26.246c10.433-4.695,18.243-8.211,24.613-11.679
				C2168.678,2695.231,2125.79,2678.816,2114.26,2655.857z"/>
			
				<linearGradient id="SVGID_00000178162743856194676900000013304994375208344216_" gradientUnits="userSpaceOnUse" x1="-3825.687" y1="2285.5557" x2="-3534.7893" y2="2563.3301" gradientTransform="matrix(1 0 0 1 5732.9619 0)">
				<stop  offset="0.0036" style="stop-color:#E38DDD"/>
				<stop  offset="1" style="stop-color:#9571F6"/>
			</linearGradient>
			<path style="fill:url(#SVGID_00000178162743856194676900000013304994375208344216_);" d="M1736.42,2300.437
				c8.02-3.463,16.039-6.926,24.059-10.389c13.554,13.862,30.842,27.342,45.384,22.965c21.677-6.523,16.257-46.402,42.65-116.469
				c29.905-79.388,63.835-99.793,80.926-107.172c9.547-4.122,16.138-6.858,24.059-4.921c36.452,8.911,48.504,103.9,38.276,174.976
				c-5.763,40.045-17.062,118.566-81.474,155.838c-9.15,5.295-59.515,34.439-109.36,11.483
				C1758.361,2407.137,1732.048,2356.821,1736.42,2300.437z"/>
			<g>
				<ellipse style="fill:#B7C0CE;" cx="2134.721" cy="3143.649" rx="221.069" ry="90.224"/>
				
					<linearGradient id="SVGID_00000138554714453767510990000009187160212732636328_" gradientUnits="userSpaceOnUse" x1="4352.5762" y1="3113.6523" x2="4794.7129" y2="3113.6523" gradientTransform="matrix(-1 0 0 1 6708.3652 0)">
					<stop  offset="0" style="stop-color:#AA80F9"/>
					<stop  offset="0.9964" style="stop-color:#6165D7"/>
				</linearGradient>
				<path style="fill:url(#SVGID_00000138554714453767510990000009187160212732636328_);" d="M2355.789,3133.068
					c0,47.037-98.975,85.169-221.068,85.169c-122.094,0-221.069-38.132-221.069-85.169c0-47.036,98.975-124.001,221.069-124.001
					C2256.814,3009.067,2355.789,3086.032,2355.789,3133.068z"/>
				
					<linearGradient id="SVGID_00000176752098066998024620000016464352692379097490_" gradientUnits="userSpaceOnUse" x1="-4212.5093" y1="3091.9644" x2="-3840.999" y2="3091.9644" gradientTransform="matrix(1 0 0 1 6196.7881 0)">
					<stop  offset="0" style="stop-color:#AA80F9"/>
					<stop  offset="0.9964" style="stop-color:#6165D7"/>
				</linearGradient>
				<path style="opacity:0.3;fill:url(#SVGID_00000176752098066998024620000016464352692379097490_);" d="M2355.789,3133.068
					c0-47.037-98.975-124.001-221.068-124.001c-56.374,0-107.79,16.425-146.84,38.719c-2.733,5.726-4.007,11.42-3.489,16.826
					c2.535,26.465,45.698,42.735,70.474,48.1c62.391,13.514,92.859-23.795,144.302-22.373
					c31.805,0.879,75.878,16.857,128.153,84.522C2345.416,3162.513,2355.789,3148.262,2355.789,3133.068z"/>
				<path style="fill:#FFFFFF;" d="M2146.83,3051.791c-8.833,2.198-17.075,2.112-24.828,0.141
					c-7.032-1.785-11.86-8.292-11.86-15.549l0.001-249.274h49.157v248.98C2159.3,3043.568,2154.088,3049.985,2146.83,3051.791z"/>
				
					<linearGradient id="SVGID_00000079464245954613901550000003358693027624978345_" gradientUnits="userSpaceOnUse" x1="-4086.6465" y1="2920.2671" x2="-4037.4883" y2="2920.2671" gradientTransform="matrix(1 0 0 1 6196.7881 0)">
					<stop  offset="0" style="stop-color:#AA80F9"/>
					<stop  offset="0.9964" style="stop-color:#6165D7"/>
				</linearGradient>
				<path style="opacity:0.65;fill:url(#SVGID_00000079464245954613901550000003358693027624978345_);" d="M2146.83,3051.791
					c-8.833,2.198-17.075,2.112-24.828,0.141c-7.032-1.785-11.86-8.292-11.86-15.549l0.001-249.274h49.157v248.98
					C2159.3,3043.568,2154.088,3049.985,2146.83,3051.791z"/>
				<g>
					
						<linearGradient id="SVGID_00000023983856746213069240000007987744164452055442_" gradientUnits="userSpaceOnUse" x1="-3818.0374" y1="2867.9939" x2="-3908.1643" y2="2750.5557" gradientTransform="matrix(1 0 0 1 6196.7881 0)">
						<stop  offset="0" style="stop-color:#311944"/>
						<stop  offset="1" style="stop-color:#893976"/>
					</linearGradient>
					<path style="fill:url(#SVGID_00000023983856746213069240000007987744164452055442_);" d="M1874.978,2682.2l75.097-47.473
						c3.124-17.734,38.522-203.254,182.233-261.511c58.441-23.69,121.335-20.88,155.849-19.337
						c68.901,3.077,118.048,5.272,141.685,38.139c30.354,42.202-20.555,80.474-10.014,201.191
						c4.299,49.228,15.23,71.092,1.615,103.704c-16.312,39.066-54.137,60.72-83.548,72.909
						c-35.157,20.416-96.37,49.507-177.219,56.592c-136.184,11.935-237.853-46.483-272.816-68.835
						c-15.547-4.902-27.229-17.83-30.534-33.792C1853.974,2707.601,1861.007,2691.031,1874.978,2682.2z"/>
				</g>
				<path style="opacity:0.26;fill:#FFFFFF;" d="M1909.508,2716.004c2.776-16.693,49.3-2.855,93.31-35.547
					c65.786-48.868,31.642-131.646,88.867-211.057c52.516-72.876,158.242-109.968,191.063-82.201
					c43.688,36.961-63.236,175.186,0,264.377c30.717,43.327,77.516,41.24,77.758,66.65c0.382,40.155-116.094,86.45-226.609,84.423
					C2015.084,2800.471,1905.102,2742.499,1909.508,2716.004z"/>
			</g>
			<g>
				<ellipse style="fill:#B7C0CE;" cx="2891.517" cy="2998.477" rx="197.53" ry="80.617"/>
				
					<linearGradient id="SVGID_00000110433052879672060550000007508253940445672382_" gradientUnits="userSpaceOnUse" x1="2693.9866" y1="2971.6746" x2="3089.0464" y2="2971.6746">
					<stop  offset="0" style="stop-color:#AA80F9"/>
					<stop  offset="0.9964" style="stop-color:#6165D7"/>
				</linearGradient>
				<path style="fill:url(#SVGID_00000110433052879672060550000007508253940445672382_);" d="M3089.046,2989.023
					c0,42.029-88.437,76.1-197.529,76.1c-109.094,0-197.531-34.071-197.531-76.1c0-42.028,88.437-110.798,197.531-110.798
					C3000.61,2878.226,3089.046,2946.995,3089.046,2989.023z"/>
				
					<linearGradient id="SVGID_00000178912424577136239500000006686649483314454921_" gradientUnits="userSpaceOnUse" x1="2831.4219" y1="2952.2961" x2="3163.3755" y2="2952.2961" gradientTransform="matrix(1 0 0 1 -74.3293 0)">
					<stop  offset="0" style="stop-color:#AA80F9"/>
					<stop  offset="0.9964" style="stop-color:#6165D7"/>
				</linearGradient>
				<path style="opacity:0.3;fill:url(#SVGID_00000178912424577136239500000006686649483314454921_);" d="M3089.046,2989.023
					c0-42.029-88.437-110.798-197.529-110.798c-50.372,0-96.314,14.676-131.206,34.596c-2.442,5.116-3.58,10.203-3.117,15.034
					c2.265,23.646,40.832,38.184,62.97,42.978c55.748,12.075,82.972-21.261,128.938-19.99
					c28.418,0.786,67.799,15.062,114.508,75.523C3079.777,3015.333,3089.046,3002.599,3089.046,2989.023z"/>
				<path style="fill:#FFFFFF;" d="M2902.336,2916.4c-7.893,1.964-15.257,1.886-22.184,0.126
					c-6.283-1.595-10.597-7.409-10.597-13.894l0.001-222.733h43.923v222.47C2913.478,2909.053,2908.821,2914.786,2902.336,2916.4z"
					/>
				
					<linearGradient id="SVGID_00000058555338701965696560000006793009787118062765_" gradientUnits="userSpaceOnUse" x1="2943.8835" y1="2798.8799" x2="2987.8076" y2="2798.8799" gradientTransform="matrix(1 0 0 1 -74.3293 0)">
					<stop  offset="0" style="stop-color:#AA80F9"/>
					<stop  offset="0.9964" style="stop-color:#6165D7"/>
				</linearGradient>
				<path style="opacity:0.65;fill:url(#SVGID_00000058555338701965696560000006793009787118062765_);" d="M2902.336,2916.4
					c-7.893,1.964-15.257,1.886-22.184,0.126c-6.283-1.595-10.597-7.409-10.597-13.894l0.001-222.733h43.923v222.47
					C2913.478,2909.053,2908.821,2914.786,2902.336,2916.4z"/>
				<g>
					
						<linearGradient id="SVGID_00000013899407543023912320000002881616127623851697_" gradientUnits="userSpaceOnUse" x1="3183.8928" y1="2752.1726" x2="3103.3621" y2="2647.2385" gradientTransform="matrix(1 0 0 1 -74.3293 0)">
						<stop  offset="0" style="stop-color:#311944"/>
						<stop  offset="1" style="stop-color:#893976"/>
					</linearGradient>
					<path style="fill:url(#SVGID_00000013899407543023912320000002881616127623851697_);" d="M2659.429,2586.161l67.101-42.418
						c2.792-15.846,34.421-181.612,162.83-233.667c52.219-21.168,108.416-18.657,139.255-17.278
						c61.564,2.75,105.478,4.71,126.599,34.078c27.121,37.708-18.367,71.906-8.948,179.769c3.841,43.987,13.609,63.523,1.443,92.662
						c-14.575,34.907-48.373,54.255-74.652,65.146c-31.413,18.242-86.109,44.236-158.349,50.567
						c-121.684,10.664-212.528-41.534-243.768-61.506c-13.892-4.38-24.33-15.931-27.283-30.194
						C2640.662,2608.858,2646.946,2594.052,2659.429,2586.161z"/>
				</g>
				<path style="opacity:0.26;fill:#FFFFFF;" d="M2690.283,2616.366c2.48-14.915,44.051-2.551,83.375-31.761
					c58.781-43.665,28.273-117.629,79.404-188.585c46.925-65.117,141.393-98.259,170.719-73.449
					c39.036,33.026-56.502,156.533,0,236.228c27.446,38.714,69.262,36.849,69.479,59.553
					c0.341,35.879-103.733,77.245-202.481,75.434C2784.618,2691.839,2686.346,2640.04,2690.283,2616.366z"/>
			</g>
		</g>
	</g>
</g>
</svg>
